<svg width="13" height="13" viewBox="0 0 13 13" fill="none" xmlns="http://www.w3.org/2000/svg">
<path d="M4.25 2.37451C4.025 2.37451 3.875 2.59951 3.875 2.74951V4.62451H3.125V2.74951C3.125 2.52451 2.975 2.37451 2.75 2.37451C2.525 2.37451 2.375 2.59951 2.375 2.74951V4.62451H1.625V2.74951C1.625 2.52451 1.475 2.37451 1.25 2.37451C1.025 2.37451 0.875 2.59951 0.875 2.74951V5.22451C0.875 5.89951 1.4 6.42451 2 6.49951V11.7495C2 12.1995 2.3 12.4995 2.75 12.4995C3.2 12.4995 3.5 12.1995 3.5 11.7495V6.49951C4.1 6.42451 4.625 5.89951 4.625 5.22451V2.74951C4.625 2.59951 4.475 2.37451 4.25 2.37451ZM5.75 2.74951V7.24951H6.5V11.7495C6.5 12.1995 6.8 12.4995 7.25 12.4995C7.7 12.4995 8 12.1995 8 11.7495V0.499512C6.725 0.499512 5.75 1.47451 5.75 2.74951ZM11 1.99951C9.95 1.99951 9.125 3.12451 9.125 4.47451C9.05 5.37451 9.5 6.19951 10.25 6.72451V11.7495C10.25 12.1995 10.55 12.4995 11 12.4995C11.45 12.4995 11.75 12.1995 11.75 11.7495V6.72451C12.5 6.19951 12.95 5.37451 12.875 4.47451C12.875 3.12451 12.05 1.99951 11 1.99951Z" fill="#FD7900"/>
</svg>
