<svg width="22" height="22" viewBox="0 0 22 22" fill="none" xmlns="http://www.w3.org/2000/svg">
<path d="M6.87455 10.9995V5.49951C6.87455 4.95781 6.98125 4.42141 7.18855 3.92094C7.39585 3.42047 7.69969 2.96574 8.08274 2.5827C8.46578 2.19965 8.92051 1.89581 9.42098 1.68851C9.92145 1.48121 10.4578 1.37451 10.9996 1.37451C11.5413 1.37451 12.0777 1.48121 12.5781 1.68851C13.0786 1.89581 13.5333 2.19965 13.9164 2.5827C14.2994 2.96574 14.6033 3.42047 14.8106 3.92094C15.0179 4.42141 15.1246 4.95781 15.1246 5.49951V11.0002C15.1245 12.0942 14.6898 13.1434 13.9161 13.9169C13.1425 14.6904 12.0932 15.1249 10.9992 15.1249C9.90519 15.1248 8.85602 14.6901 8.08249 13.9164C7.30897 13.1428 6.87446 12.0935 6.87455 10.9995ZM17.2247 11.0042C17.0438 10.9861 16.8629 11.0396 16.7211 11.1534C16.5792 11.2671 16.4876 11.432 16.466 11.6125C16.3152 12.9568 15.6742 14.1983 14.6658 15.0999C13.6573 16.0014 12.352 16.4998 10.9992 16.4997C9.64653 16.4996 8.34128 16.0011 7.33291 15.0994C6.32455 14.1977 5.68378 12.9561 5.53307 11.6118C5.51086 11.4316 5.41911 11.2672 5.27739 11.1537C5.13567 11.0402 4.95521 10.9866 4.7745 11.0042C4.59318 11.0244 4.42728 11.1157 4.31323 11.258C4.19917 11.4004 4.1463 11.5822 4.16623 11.7636C4.34123 13.3237 5.04752 14.7761 6.16657 15.8772C7.28561 16.9782 8.74932 17.6608 10.3121 17.8105V19.937C10.3121 20.1193 10.3845 20.2942 10.5134 20.4231C10.6423 20.5521 10.8172 20.6245 10.9996 20.6245C11.1819 20.6245 11.3568 20.5521 11.4857 20.4231C11.6146 20.2942 11.6871 20.1193 11.6871 19.937V17.8106C13.2501 17.6612 14.7141 16.9786 15.8332 15.8774C16.9524 14.7761 17.6585 13.3233 17.833 11.7629C17.8529 11.5816 17.8 11.3999 17.6859 11.2576C17.5718 11.1154 17.4059 11.0242 17.2247 11.0042Z" fill="white" fill-opacity="0.3"/>
</svg>
