<svg width="32" height="38" viewBox="0 0 32 38" fill="none" xmlns="http://www.w3.org/2000/svg">
<g filter="url(#filter0_d)">
<path d="M21 17.75C20.6548 17.75 20.375 18.0298 20.375 18.375V19.625C20.375 20.7853 19.9141 21.8981 19.0936 22.7186C18.2731 23.5391 17.1603 24 16 24C14.8397 24 13.7269 23.5391 12.9064 22.7186C12.0859 21.8981 11.625 20.7853 11.625 19.625V18.375C11.625 18.0298 11.3452 17.75 11 17.75C10.6548 17.75 10.375 18.0298 10.375 18.375V19.625C10.3757 21.0082 10.8859 22.3426 11.8083 23.3733C12.7306 24.4041 14.0004 25.0588 15.375 25.2125V26.5H13.5C13.1548 26.5 12.875 26.7798 12.875 27.125C12.875 27.4702 13.1548 27.75 13.5 27.75H18.5C18.8452 27.75 19.125 27.4702 19.125 27.125C19.125 26.7798 18.8452 26.5 18.5 26.5H16.625V25.2125C17.9996 25.0588 19.2694 24.4041 20.1917 23.3733C21.1141 22.3426 21.6243 21.0082 21.625 19.625V18.375C21.625 18.0298 21.3452 17.75 21 17.75Z" fill="white"/>
<path d="M16 22.75C16.8288 22.75 17.6237 22.4208 18.2097 21.8347C18.7958 21.2487 19.125 20.4538 19.125 19.625V13.375C19.125 12.5462 18.7958 11.7513 18.2097 11.1653C17.6237 10.5792 16.8288 10.25 16 10.25C15.1712 10.25 14.3763 10.5792 13.7903 11.1653C13.2042 11.7513 12.875 12.5462 12.875 13.375V19.625C12.875 20.4538 13.2042 21.2487 13.7903 21.8347C14.3763 22.4208 15.1712 22.75 16 22.75Z" fill="white"/>
</g>
<defs>
<filter id="filter0_d" x="-4" y="-1" width="40" height="40" filterUnits="userSpaceOnUse" color-interpolation-filters="sRGB">
<feFlood flood-opacity="0" result="BackgroundImageFix"/>
<feColorMatrix in="SourceAlpha" type="matrix" values="0 0 0 0 0 0 0 0 0 0 0 0 0 0 0 0 0 0 127 0"/>
<feOffset/>
<feGaussianBlur stdDeviation="5"/>
<feColorMatrix type="matrix" values="0 0 0 0 0 0 0 0 0 0 0 0 0 0 0 0 0 0 0.3 0"/>
<feBlend mode="normal" in2="BackgroundImageFix" result="effect1_dropShadow"/>
<feBlend mode="normal" in="SourceGraphic" in2="effect1_dropShadow" result="shape"/>
</filter>
</defs>
</svg>
