<svg width="18" height="16" viewBox="0 0 18 16" fill="none" xmlns="http://www.w3.org/2000/svg">
<path d="M15.666 3.83333V2.16667C15.666 1.2475 14.9185 0.5 13.9993 0.5H3.16602C1.78768 0.5 0.666016 1.62167 0.666016 3V13C0.666016 14.8342 2.16102 15.5 3.16602 15.5H15.666C16.5852 15.5 17.3327 14.7525 17.3327 13.8333V5.5C17.3327 4.58083 16.5852 3.83333 15.666 3.83333ZM13.9993 11.3333H12.3327V8H13.9993V11.3333ZM3.16602 3.83333C2.95145 3.82374 2.74885 3.73174 2.60041 3.57651C2.45197 3.42129 2.36913 3.21478 2.36913 3C2.36913 2.78522 2.45197 2.57871 2.60041 2.42349C2.74885 2.26826 2.95145 2.17626 3.16602 2.16667H13.9993V3.83333H3.16602Z" fill="white"/>
</svg>
