<svg width="12" height="18" viewBox="0 0 12 18" fill="none" xmlns="http://www.w3.org/2000/svg">
<path d="M5.99935 0.666504C2.77435 0.666504 0.166016 3.27484 0.166016 6.49984C0.166016 10.8748 5.99935 17.3332 5.99935 17.3332C5.99935 17.3332 11.8327 10.8748 11.8327 6.49984C11.8327 3.27484 9.22435 0.666504 5.99935 0.666504ZM5.99935 8.58317C5.44682 8.58317 4.91691 8.36368 4.52621 7.97298C4.13551 7.58228 3.91602 7.05237 3.91602 6.49984C3.91602 5.9473 4.13551 5.4174 4.52621 5.0267C4.91691 4.636 5.44682 4.4165 5.99935 4.4165C6.55188 4.4165 7.08179 4.636 7.47249 5.0267C7.86319 5.4174 8.08268 5.9473 8.08268 6.49984C8.08268 7.05237 7.86319 7.58228 7.47249 7.97298C7.08179 8.36368 6.55188 8.58317 5.99935 8.58317Z" fill="white"/>
</svg>
