<svg width="9" height="13" viewBox="0 0 9 13" fill="none" xmlns="http://www.w3.org/2000/svg">
<path d="M4.23281 0.761086C4.26582 0.722542 4.30677 0.691599 4.35287 0.670384C4.39897 0.649169 4.44911 0.638184 4.49985 0.638184C4.5506 0.638184 4.60074 0.649169 4.64684 0.670384C4.69293 0.691599 4.73389 0.722542 4.76689 0.761086C5.69443 1.84595 8.71875 5.59654 8.71875 8.37476C8.71875 10.9637 7.08867 12.5935 4.5 12.5935C1.91133 12.5935 0.28125 10.9637 0.28125 8.37476C0.28125 5.59654 3.30557 1.84595 4.23281 0.761086ZM4.03125 11.0701C4.08756 11.0702 4.14307 11.0568 4.19312 11.031C4.24317 11.0052 4.28629 10.9677 4.31885 10.9218C4.35141 10.8759 4.37246 10.8228 4.38022 10.767C4.38799 10.7112 4.38225 10.6544 4.36348 10.6013C4.3395 10.5321 4.29429 10.4721 4.23427 10.43C4.17425 10.3879 4.10249 10.3659 4.0292 10.3669C3.56385 10.3659 3.11785 10.1806 2.7888 9.85158C2.45975 9.52253 2.27444 9.07653 2.27344 8.61118C2.27451 8.53789 2.25243 8.46613 2.21035 8.40611C2.16827 8.34609 2.10833 8.30088 2.03906 8.27691C1.98597 8.25814 1.92915 8.25239 1.87338 8.26016C1.81761 8.26793 1.76452 8.28897 1.71859 8.32154C1.67265 8.35409 1.6352 8.39721 1.6094 8.44726C1.58359 8.49731 1.57019 8.55282 1.57031 8.60913C1.57101 9.2616 1.83051 9.88714 2.29187 10.3485C2.75324 10.8099 3.37878 11.0694 4.03125 11.0701Z" fill="#0093FD"/>
</svg>
