<svg width="14" height="14" viewBox="0 0 14 14" fill="none" xmlns="http://www.w3.org/2000/svg">
<path d="M9.79066 3.41523C9.79066 5.02047 8.45229 6.32178 6.80134 6.32178C5.15038 6.32178 3.81201 5.02047 3.81201 3.41523C3.81201 1.80998 5.15038 0.508675 6.80134 0.508675C8.45229 0.508675 9.79066 1.80998 9.79066 3.41523Z" fill="#F9F9F9"/>
<path fill-rule="evenodd" clip-rule="evenodd" d="M6.80005 1.01729C5.43801 1.01729 4.33386 2.09087 4.33386 3.4152C4.33386 4.73953 5.43801 5.81311 6.80005 5.81311C8.16209 5.81311 9.26625 4.73953 9.26625 3.4152C9.26625 2.09087 8.16209 1.01729 6.80005 1.01729ZM3.2876 3.4152C3.2876 1.52904 4.86018 0 6.80005 0C8.73993 0 10.3125 1.52904 10.3125 3.4152C10.3125 5.30137 8.73993 6.8304 6.80005 6.8304C4.86018 6.8304 3.2876 5.30137 3.2876 3.4152Z" fill="#F9F9F9"/>
<path d="M13.4764 13.4913H0.522705C0.522705 11.8766 1.81808 8.64706 6.99957 8.64706C12.1811 8.64706 13.4764 11.8766 13.4764 13.4913Z" fill="#F9F9F9"/>
<path fill-rule="evenodd" clip-rule="evenodd" d="M1.43658 10.116C2.52276 8.98771 4.28929 8.13839 7 8.13839C9.71071 8.13839 11.4772 8.98771 12.5634 10.116C13.6359 11.2302 14 12.5702 14 13.4913C14 13.7722 13.7658 13.9999 13.4769 13.9999H0.523132C0.234214 13.9999 0 13.7722 0 13.4913C0 12.5702 0.364069 11.2302 1.43658 10.116ZM1.09075 12.9826H12.9092C12.8004 12.3297 12.4784 11.5164 11.7996 10.8112C10.9427 9.9211 9.47078 9.15568 7 9.15568C4.52922 9.15568 3.05731 9.9211 2.20044 10.8112C1.52156 11.5164 1.19961 12.3297 1.09075 12.9826Z" fill="#F9F9F9"/>
</svg>
