<svg width="183" height="274" viewBox="0 0 183 274" fill="none" xmlns="http://www.w3.org/2000/svg">
<path d="M127.75 68.4375H54.75C37.1114 68.4375 22.8125 82.7364 22.8125 100.375V173.375C22.8125 191.014 37.1114 205.312 54.75 205.312H127.75C145.389 205.312 159.688 191.014 159.688 173.375V100.375C159.688 82.7364 145.389 68.4375 127.75 68.4375Z" fill="white" fill-opacity="0.05"/>
<path d="M127.75 68.4375H54.75C37.1114 68.4375 22.8125 82.7364 22.8125 100.375V173.375C22.8125 191.014 37.1114 205.312 54.75 205.312H127.75C145.389 205.312 159.688 191.014 159.688 173.375V100.375C159.688 82.7364 145.389 68.4375 127.75 68.4375Z" fill="url(#paint0_linear)"/>
<path d="M136.875 45.625V9.125C136.875 6.7049 135.914 4.38392 134.202 2.67265C132.491 0.961381 130.17 0 127.75 0H54.75C52.3299 0 50.0089 0.961381 48.2977 2.67265C46.5864 4.38392 45.625 6.7049 45.625 9.125V45.625C33.5287 45.6386 21.9317 50.4499 13.3783 59.0033C4.82485 67.5567 0.0135855 79.1537 0 91.25V182.5C0.0135855 194.596 4.82485 206.193 13.3783 214.747C21.9317 223.3 33.5287 228.111 45.625 228.125V264.625C45.625 267.045 46.5864 269.366 48.2977 271.077C50.0089 272.789 52.3299 273.75 54.75 273.75H127.75C130.17 273.75 132.491 272.789 134.202 271.077C135.914 269.366 136.875 267.045 136.875 264.625V228.125C148.971 228.111 160.568 223.3 169.122 214.747C177.675 206.193 182.486 194.596 182.5 182.5V91.25C182.486 79.1537 177.675 67.5567 169.122 59.0033C160.568 50.4499 148.971 45.6386 136.875 45.625ZM168.812 173.375C168.8 184.262 164.47 194.699 156.772 202.397C149.074 210.095 138.637 214.425 127.75 214.438H54.75C43.8633 214.425 33.4259 210.095 25.7278 202.397C18.0297 194.699 13.6996 184.262 13.6875 173.375V100.375C13.6996 89.4883 18.0297 79.0509 25.7278 71.3528C33.4259 63.6547 43.8633 59.3246 54.75 59.3125H127.75C138.637 59.3246 149.074 63.6547 156.772 71.3528C164.47 79.0509 168.8 89.4883 168.812 100.375V173.375Z" fill="url(#paint1_linear)" fill-opacity="0.8"/>
<defs>
<linearGradient id="paint0_linear" x1="91.25" y1="68.2155" x2="91.25" y2="205.312" gradientUnits="userSpaceOnUse">
<stop stop-color="white" stop-opacity="0"/>
<stop offset="0.520833" stop-color="white" stop-opacity="0.08"/>
<stop offset="1" stop-color="white" stop-opacity="0"/>
</linearGradient>
<linearGradient id="paint1_linear" x1="91.25" y1="-0.443919" x2="91.25" y2="273.75" gradientUnits="userSpaceOnUse">
<stop stop-color="white" stop-opacity="0"/>
<stop offset="0.520833" stop-color="white" stop-opacity="0.08"/>
<stop offset="1" stop-color="white" stop-opacity="0"/>
</linearGradient>
</defs>
</svg>
