<svg width="14" height="15" viewBox="0 0 14 15" fill="none" xmlns="http://www.w3.org/2000/svg">
<path d="M8.97577 1.35241C8.70983 1.1086 8.36004 0.97688 7.99934 0.984705C7.63864 0.99253 7.29489 1.1393 7.03977 1.39441L0.423773 8.01041C0.293756 8.14041 0.19062 8.29475 0.120254 8.46462C0.0498886 8.63448 0.0136719 8.81655 0.0136719 9.00041C0.0136719 9.18427 0.0498886 9.36633 0.120254 9.5362C0.19062 9.70606 0.293756 9.8604 0.423773 9.99041L1.34977 10.9164C1.69677 11.2634 2.19577 11.1804 2.48977 10.9834C2.70133 10.8428 2.95505 10.7797 3.20782 10.8049C3.4606 10.8301 3.69686 10.9421 3.87649 11.1217C4.05611 11.3013 4.16803 11.5376 4.19324 11.7904C4.21845 12.0431 4.15539 12.2968 4.01477 12.5084C3.81977 12.8034 3.73577 13.3024 4.08277 13.6494L4.98777 14.5544C5.12028 14.687 5.27808 14.7917 5.45181 14.8622C5.62554 14.9327 5.81166 14.9676 5.99912 14.9648C6.18659 14.962 6.37158 14.9216 6.54313 14.8459C6.71468 14.7703 6.86928 14.6609 6.99777 14.5244L13.5958 7.51241C13.7229 7.37742 13.822 7.21851 13.8873 7.04491C13.9525 6.87131 13.9826 6.68647 13.9758 6.50114C13.969 6.31581 13.9255 6.13368 13.8477 5.96532C13.7699 5.79696 13.6595 5.64573 13.5228 5.52041L12.6368 4.70841C12.5393 4.62121 12.4228 4.55792 12.2967 4.52355C12.1705 4.48918 12.038 4.48468 11.9098 4.51041C11.6828 4.55041 11.4678 4.67141 11.3118 4.84141C11.2141 4.94791 11.0965 5.03414 10.9655 5.09517C10.8346 5.1562 10.6929 5.19084 10.5485 5.19711C10.4042 5.20337 10.26 5.18115 10.1242 5.1317C9.98847 5.08225 9.86377 5.00655 9.75727 4.90891C9.54218 4.71172 9.41423 4.43716 9.40158 4.14564C9.39531 4.00129 9.41753 3.85712 9.46698 3.72136C9.51643 3.5856 9.59213 3.46091 9.68977 3.35441C9.84677 3.18541 9.94777 2.96041 9.96877 2.73141C9.98338 2.60146 9.96749 2.4699 9.92236 2.34717C9.87722 2.22444 9.80409 2.11393 9.70877 2.02441L8.97577 1.35241Z" fill="white"/>
</svg>
