<svg width="38" height="39" viewBox="0 0 38 39" fill="none" xmlns="http://www.w3.org/2000/svg">
<g clip-path="url(#clip0_58:35)">
<g filter="url(#filter0_d_58:35)">
<path d="M29.6131 8.8901C23.7639 3.04086 14.2434 3.04086 8.39416 8.8901C5.56078 11.7246 4 15.4924 4 19.4995C4 23.5067 5.56078 27.2745 8.39416 30.1079C11.3194 33.0331 15.1615 34.4951 19.0036 34.4951C22.8457 34.4951 26.6879 33.0331 29.613 30.1079C35.4623 24.2586 35.4623 14.7405 29.6131 8.8901ZM27.9698 28.4645C23.0259 33.4084 14.9813 33.4084 10.0374 28.4645C7.64339 26.0705 6.32432 22.8861 6.32432 19.4995C6.32432 16.113 7.64339 12.9286 10.0374 10.5334C14.9813 5.58948 23.0259 5.59065 27.9698 10.5334C32.9125 15.4773 32.9125 23.5218 27.9698 28.4645Z" fill="#FD0023"/>
<path d="M24.0112 22.7121L20.721 19.4267L24.0112 16.1412C24.4644 15.688 24.4644 14.9523 24.0123 14.4979C23.5579 14.0423 22.8223 14.0435 22.3679 14.4967L19.0755 17.7845L15.7831 14.4967C15.3287 14.0435 14.593 14.0423 14.1386 14.4979C13.6854 14.9523 13.6854 15.6879 14.1398 16.1412L17.4299 19.4267L14.1398 22.7121C13.6854 23.1653 13.6854 23.901 14.1386 24.3554C14.3652 24.5832 14.6639 24.6959 14.9614 24.6959C15.259 24.6959 15.5565 24.582 15.7831 24.3565L19.0755 21.0688L22.3679 24.3565C22.5946 24.5832 22.8921 24.6959 23.1896 24.6959C23.4871 24.6959 23.7858 24.582 24.0124 24.3554C24.4656 23.901 24.4656 23.1653 24.0112 22.7121Z" fill="#FD0023"/>
</g>
</g>
<defs>
<filter id="filter0_d_58:35" x="0" y="0.503174" width="38" height="37.9919" filterUnits="userSpaceOnUse" color-interpolation-filters="sRGB">
<feFlood flood-opacity="0" result="BackgroundImageFix"/>
<feColorMatrix in="SourceAlpha" type="matrix" values="0 0 0 0 0 0 0 0 0 0 0 0 0 0 0 0 0 0 127 0" result="hardAlpha"/>
<feOffset/>
<feGaussianBlur stdDeviation="2"/>
<feColorMatrix type="matrix" values="0 0 0 0 0.992157 0 0 0 0 0 0 0 0 0 0.137255 0 0 0 0.25 0"/>
<feBlend mode="normal" in2="BackgroundImageFix" result="effect1_dropShadow_58:35"/>
<feBlend mode="normal" in="SourceGraphic" in2="effect1_dropShadow_58:35" result="shape"/>
</filter>
<clipPath id="clip0_58:35">
<rect width="38" height="38" fill="white" transform="translate(0 0.5)"/>
</clipPath>
</defs>
</svg>
