<svg width="38" height="39" viewBox="0 0 38 39" fill="none" xmlns="http://www.w3.org/2000/svg">
<g clip-path="url(#clip0_58:42)">
<g filter="url(#filter0_d_58:42)">
<path d="M19 4.88461C10.7088 4.88461 4 11.422 4 19.5C4 27.5786 10.7094 34.1154 19 34.1154C27.2912 34.1154 34 27.578 34 19.5C34 11.4214 27.2905 4.88461 19 4.88461ZM19 31.8317C12.0043 31.8317 6.34375 26.3158 6.34375 19.5C6.34375 12.6837 12.0048 7.16827 19 7.16827C25.9957 7.16827 31.6562 12.6842 31.6562 19.5C31.6562 26.3163 25.9952 31.8317 19 31.8317Z" fill="#00A2FD"/>
<path d="M19 17.1214C18.3528 17.1214 17.8281 17.6326 17.8281 18.2633V25.6163C17.8281 26.2469 18.3528 26.7581 19 26.7581C19.6472 26.7581 20.1719 26.2469 20.1719 25.6162V18.2633C20.1719 17.6326 19.6472 17.1214 19 17.1214Z" fill="#00A2FD"/>
<path d="M19 15.7229C19.8737 15.7229 20.582 15.0327 20.582 14.1815C20.582 13.3302 19.8737 12.64 19 12.64C18.1263 12.64 17.418 13.3302 17.418 14.1815C17.418 15.0327 18.1263 15.7229 19 15.7229Z" fill="#00A2FD"/>
</g>
</g>
<defs>
<filter id="filter0_d_58:42" x="0" y="0.884613" width="38" height="37.2308" filterUnits="userSpaceOnUse" color-interpolation-filters="sRGB">
<feFlood flood-opacity="0" result="BackgroundImageFix"/>
<feColorMatrix in="SourceAlpha" type="matrix" values="0 0 0 0 0 0 0 0 0 0 0 0 0 0 0 0 0 0 127 0" result="hardAlpha"/>
<feOffset/>
<feGaussianBlur stdDeviation="2"/>
<feColorMatrix type="matrix" values="0 0 0 0 0 0 0 0 0 0.635294 0 0 0 0 0.992157 0 0 0 0.25 0"/>
<feBlend mode="normal" in2="BackgroundImageFix" result="effect1_dropShadow_58:42"/>
<feBlend mode="normal" in="SourceGraphic" in2="effect1_dropShadow_58:42" result="shape"/>
</filter>
<clipPath id="clip0_58:42">
<rect width="38" height="38" fill="white" transform="translate(0 0.5)"/>
</clipPath>
</defs>
</svg>
