<svg width="38" height="39" viewBox="0 0 38 39" fill="none" xmlns="http://www.w3.org/2000/svg">
<g clip-path="url(#clip0_58:39)">
<g filter="url(#filter0_d_58:39)">
<path d="M25.6307 14.7404C26.0885 15.1982 26.0885 15.9402 25.6307 16.3977L17.7691 24.2596C17.3113 24.7171 16.5695 24.7171 16.1117 24.2596L12.3693 20.5169C11.9115 20.0594 11.9115 19.3174 12.3693 18.8598C12.8268 18.4021 13.5689 18.4021 14.0264 18.8598L16.9403 21.7737L23.9734 14.7404C24.4311 14.2829 25.1732 14.2829 25.6307 14.7404ZM34 19.5C34 27.7912 27.2901 34.5 19 34.5C10.7088 34.5 4 27.7901 4 19.5C4 11.2088 10.7099 4.5 19 4.5C27.2912 4.5 34 11.2099 34 19.5ZM31.6562 19.5C31.6562 12.5042 25.9949 6.84375 19 6.84375C12.0042 6.84375 6.34375 12.5051 6.34375 19.5C6.34375 26.4958 12.0051 32.1562 19 32.1562C25.9958 32.1562 31.6562 26.4949 31.6562 19.5Z" fill="#00FD19"/>
</g>
</g>
<defs>
<filter id="filter0_d_58:39" x="0" y="0.5" width="38" height="38" filterUnits="userSpaceOnUse" color-interpolation-filters="sRGB">
<feFlood flood-opacity="0" result="BackgroundImageFix"/>
<feColorMatrix in="SourceAlpha" type="matrix" values="0 0 0 0 0 0 0 0 0 0 0 0 0 0 0 0 0 0 127 0" result="hardAlpha"/>
<feOffset/>
<feGaussianBlur stdDeviation="2"/>
<feColorMatrix type="matrix" values="0 0 0 0 0 0 0 0 0 0.992157 0 0 0 0 0.0980392 0 0 0 0.25 0"/>
<feBlend mode="normal" in2="BackgroundImageFix" result="effect1_dropShadow_58:39"/>
<feBlend mode="normal" in="SourceGraphic" in2="effect1_dropShadow_58:39" result="shape"/>
</filter>
<clipPath id="clip0_58:39">
<rect width="38" height="38" fill="white" transform="translate(0 0.5)"/>
</clipPath>
</defs>
</svg>
