<svg width="38" height="39" viewBox="0 0 38 39" fill="none" xmlns="http://www.w3.org/2000/svg">
<g filter="url(#filter0_d_58:30)">
<path d="M19.0007 25.2094C18.162 25.2094 17.459 25.9314 17.459 26.7927C17.459 27.6541 18.162 28.3762 19.0007 28.3762C19.8086 28.3762 20.5425 27.6541 20.5055 26.8307C20.5425 25.925 19.8456 25.2094 19.0007 25.2094Z" fill="#FDE400"/>
<path d="M33.27 30.8205C34.2382 29.1041 34.2444 27.0583 33.2823 25.3482L23.6249 8.17138C22.669 6.4423 20.9422 5.41626 19.0058 5.41626C17.0694 5.41626 15.3426 6.44864 14.3867 8.16506L4.71694 25.3608C3.75489 27.09 3.76106 29.1484 4.73544 30.8648C5.69749 32.5623 7.41807 33.582 9.34216 33.582H28.6324C30.5627 33.582 32.2956 32.5495 33.27 30.8205ZM31.1732 29.5791C30.6367 30.5292 29.687 31.0928 28.6263 31.0928H9.336C8.28761 31.0928 7.34407 30.5418 6.81987 29.6108C6.28951 28.6671 6.28335 27.5397 6.81371 26.5896L16.4835 9.40012C17.0077 8.4564 17.9451 7.89905 19.0058 7.89905C20.0603 7.89905 21.0039 8.46274 21.5281 9.40645L31.1917 26.5959C31.7097 27.5207 31.7036 28.6354 31.1732 29.5791Z" fill="#FDE400"/>
<path d="M18.618 14.0931C17.8841 14.3085 17.4277 14.9925 17.4277 15.8222C17.4647 16.3226 17.4956 16.8292 17.5326 17.3296C17.6374 19.2361 17.7422 21.1045 17.8471 23.0109C17.8841 23.6569 18.3713 24.1257 19.0003 24.1257C19.6293 24.1257 20.1227 23.6253 20.1535 22.9729C20.1535 22.5803 20.1535 22.2192 20.1905 21.8202C20.2584 20.5978 20.3324 19.3754 20.4002 18.153C20.4372 17.3613 20.505 16.5696 20.542 15.7779C20.542 15.4929 20.505 15.2395 20.4002 14.9862C20.0857 14.2769 19.3518 13.9158 18.618 14.0931Z" fill="#FDE400"/>
</g>
<defs>
<filter id="filter0_d_58:30" x="0" y="1.41626" width="38" height="36.1657" filterUnits="userSpaceOnUse" color-interpolation-filters="sRGB">
<feFlood flood-opacity="0" result="BackgroundImageFix"/>
<feColorMatrix in="SourceAlpha" type="matrix" values="0 0 0 0 0 0 0 0 0 0 0 0 0 0 0 0 0 0 127 0" result="hardAlpha"/>
<feOffset/>
<feGaussianBlur stdDeviation="2"/>
<feColorMatrix type="matrix" values="0 0 0 0 0.992157 0 0 0 0 0.894118 0 0 0 0 0 0 0 0 0.25 0"/>
<feBlend mode="normal" in2="BackgroundImageFix" result="effect1_dropShadow_58:30"/>
<feBlend mode="normal" in="SourceGraphic" in2="effect1_dropShadow_58:30" result="shape"/>
</filter>
</defs>
</svg>
