<svg width="18" height="18" viewBox="0 0 18 18" fill="none" xmlns="http://www.w3.org/2000/svg">
<path d="M16.8753 1.13729C16.7596 1.02141 16.6223 0.929477 16.4711 0.866751C16.3198 0.804024 16.1577 0.771736 15.994 0.771736C15.8303 0.771736 15.6682 0.804024 15.517 0.866751C15.3658 0.929477 15.2284 1.02141 15.1128 1.13729L9.00028 7.23729L2.88778 1.12479C2.77205 1.00906 2.63466 0.917264 2.48346 0.854632C2.33225 0.792001 2.17019 0.759766 2.00653 0.759766C1.84287 0.759766 1.68081 0.792001 1.5296 0.854632C1.3784 0.917264 1.24101 1.00906 1.12528 1.12479C1.00955 1.24052 0.917752 1.37791 0.855121 1.52911C0.792489 1.68032 0.760254 1.84238 0.760254 2.00604C0.760254 2.1697 0.792489 2.33177 0.855121 2.48297C0.917752 2.63418 1.00955 2.77156 1.12528 2.88729L7.23778 8.99979L1.12528 15.1123C1.00955 15.228 0.917752 15.3654 0.855121 15.5166C0.792489 15.6678 0.760254 15.8299 0.760254 15.9935C0.760254 16.1572 0.792489 16.3193 0.855121 16.4705C0.917752 16.6217 1.00955 16.7591 1.12528 16.8748C1.24101 16.9905 1.3784 17.0823 1.5296 17.1449C1.68081 17.2076 1.84287 17.2398 2.00653 17.2398C2.17019 17.2398 2.33225 17.2076 2.48346 17.1449C2.63466 17.0823 2.77205 16.9905 2.88778 16.8748L9.00028 10.7623L15.1128 16.8748C15.2285 16.9905 15.3659 17.0823 15.5171 17.1449C15.6683 17.2076 15.8304 17.2398 15.994 17.2398C16.1577 17.2398 16.3198 17.2076 16.471 17.1449C16.6222 17.0823 16.7595 16.9905 16.8753 16.8748C16.991 16.7591 17.0828 16.6217 17.1454 16.4705C17.2081 16.3193 17.2403 16.1572 17.2403 15.9935C17.2403 15.8299 17.2081 15.6678 17.1454 15.5166C17.0828 15.3654 16.991 15.228 16.8753 15.1123L10.7628 8.99979L16.8753 2.88729C17.3503 2.41229 17.3503 1.61229 16.8753 1.13729Z" fill="white"/>
</svg>
