<svg width="16" height="12" viewBox="0 0 16 12" fill="none" xmlns="http://www.w3.org/2000/svg">
<path d="M14.1707 5.30767C14.4867 5.72101 14.4867 6.27901 14.1707 6.69167C13.1754 7.99101 10.7874 10.6663 7.99936 10.6663C5.21136 10.6663 2.82336 7.99101 1.82802 6.69167C1.67428 6.49376 1.59082 6.25029 1.59082 5.99967C1.59082 5.74906 1.67428 5.50559 1.82802 5.30767C2.82336 4.00834 5.21136 1.33301 7.99936 1.33301C10.7874 1.33301 13.1754 4.00834 14.1707 5.30767V5.30767Z" stroke="white" stroke-width="2" stroke-linecap="round" stroke-linejoin="round"/>
<path d="M7.99902 8C9.10359 8 9.99902 7.10457 9.99902 6C9.99902 4.89543 9.10359 4 7.99902 4C6.89445 4 5.99902 4.89543 5.99902 6C5.99902 7.10457 6.89445 8 7.99902 8Z" stroke="white" stroke-width="2" stroke-linecap="round" stroke-linejoin="round"/>
</svg>
